<svg id="Layer_1" data-name="Layer 1" xmlns="http://www.w3.org/2000/svg" xmlns:xlink="http://www.w3.org/1999/xlink" viewBox="0 0 1056 467.87"><defs><style>.cls-1{fill:none;stroke:#aebcc3;stroke-miterlimit:10;stroke-width:0.75px;}.cls-2{fill:#aecbfa;}.cls-3{fill:#669df6;}.cls-4{fill:#4285f4;}.cls-11,.cls-5{fill:#fff;}.cls-6{font-size:16px;}.cls-6,.cls-7{fill:#3c4043;}.cls-11,.cls-6,.cls-8{font-family:GoogleSans-Medium, Google Sans;font-weight:500;}.cls-7{font-size:12px;font-family:GoogleSans-Regular, Google Sans;}.cls-9{fill:#afbdc4;opacity:0.99;}.cls-10{clip-path:url(#clip-path);}.cls-11{font-size:14px;}.cls-12{letter-spacing:0em;}.cls-13{letter-spacing:-0.02em;}.cls-14{letter-spacing:0em;}.cls-15{letter-spacing:-0.03em;}.cls-16{letter-spacing:0em;}.cls-17{letter-spacing:0em;}.cls-18{letter-spacing:-0.01em;}.cls-19{letter-spacing:0.01em;}.cls-20{clip-path:url(#clip-path-2);}.cls-21{clip-path:url(#clip-path-3);}.cls-22{clip-path:url(#clip-path-4);}.cls-23{letter-spacing:-0.01em;}.cls-24{letter-spacing:-0.02em;}.cls-25{letter-spacing:0em;}.cls-26{letter-spacing:-0.03em;}.cls-27{letter-spacing:-0.01em;}.cls-28{letter-spacing:-0.03em;}.cls-29{letter-spacing:0em;}.cls-30{letter-spacing:0em;}</style><clipPath id="clip-path"><rect class="cls-1" x="125.16" y="115.03" width="186.63" height="251.38" rx="4"/></clipPath><clipPath id="clip-path-2"><rect class="cls-1" x="332.48" y="115.03" width="186.63" height="251.38" rx="4"/></clipPath><clipPath id="clip-path-3"><rect class="cls-1" x="540.18" y="115.03" width="186.63" height="251.38" rx="4"/></clipPath><clipPath id="clip-path-4"><rect class="cls-1" x="747.35" y="115.03" width="186.63" height="251.38" rx="4"/></clipPath></defs><title>Artboard 1 copy 2</title><rect class="cls-2" x="193.85" y="185.94" width="48" height="16.8"/><rect class="cls-3" x="237.05" y="185.94" width="4.8" height="16.8"/><polygon class="cls-4" points="241.85 185.94 237.05 185.94 237.05 202.74 241.85 185.94"/><rect class="cls-3" x="193.85" y="185.94" width="4.8" height="16.8"/><rect class="cls-5" x="203.45" y="193.14" width="14.4" height="2.4"/><rect class="cls-5" x="225.05" y="190.74" width="7.2" height="7.2" rx="2.4"/><rect class="cls-2" x="193.85" y="207.54" width="48" height="16.8"/><rect class="cls-3" x="237.05" y="207.54" width="4.8" height="16.8"/><polygon class="cls-4" points="241.85 207.54 237.05 207.54 237.05 224.34 241.85 207.54"/><rect class="cls-3" x="193.85" y="207.54" width="4.8" height="16.8"/><rect class="cls-5" x="203.45" y="214.74" width="14.4" height="2.4"/><rect class="cls-5" x="225.05" y="212.34" width="7.2" height="7.2" rx="2.4"/><text class="cls-6" transform="translate(184.82 250.64)">Standard</text><text class="cls-6" transform="translate(151.07 53.87)">High-performance <tspan x="15.36" y="19.2">object storage</tspan></text><text class="cls-6" transform="translate(526.5 72.65)">Backup and archival storage</text><text class="cls-6" transform="translate(402.85 423.52)">A single API for all storage classes</text><text class="cls-7" transform="translate(157.47 273.8)">Most projects start with <tspan x="14.57" y="14.4">our Standard class </tspan><tspan x="11.99" y="28.8">of storage, which is </tspan><tspan x="28" y="43.2">optimized for </tspan><tspan x="17.39" y="57.6">performance and </tspan><tspan class="cls-8"><tspan x="-0.3" y="72">high frequency access.</tspan></tspan></text><rect class="cls-2" x="401.52" y="185.73" width="48" height="16.8"/><rect class="cls-3" x="444.72" y="185.73" width="4.8" height="16.8"/><polygon class="cls-4" points="449.52 185.73 444.73 185.73 444.73 202.53 449.52 185.73"/><rect class="cls-3" x="401.52" y="185.73" width="4.8" height="16.8"/><rect class="cls-5" x="411.12" y="192.93" width="14.4" height="2.4"/><rect class="cls-5" x="432.72" y="190.53" width="7.2" height="7.2" rx="2.4"/><rect class="cls-2" x="401.52" y="207.33" width="48" height="16.8"/><rect class="cls-3" x="444.72" y="207.33" width="4.8" height="16.8"/><polygon class="cls-4" points="449.52 207.33 444.73 207.33 444.73 224.13 449.52 207.33"/><rect class="cls-3" x="401.52" y="207.33" width="4.8" height="16.8"/><rect class="cls-5" x="411.12" y="214.53" width="14.4" height="2.4"/><rect class="cls-5" x="432.72" y="212.13" width="7.2" height="7.2" rx="2.4"/><text class="cls-6" transform="translate(392.49 250.64)">Nearline</text><text class="cls-7" transform="translate(369.37 273.8)">Our Nearline class of <tspan x="16.5" y="14.4">storage is fast, </tspan><tspan x="18.29" y="28.8">highly durable </tspan><tspan x="12.35" y="43.2">storage for data </tspan><tspan x="5.41" y="57.6">accessed less than </tspan><tspan class="cls-8"><tspan x="16.41" y="72">once a month.</tspan></tspan></text><rect class="cls-2" x="608.87" y="185.39" width="48" height="16.8"/><rect class="cls-3" x="652.07" y="185.39" width="4.8" height="16.8"/><polygon class="cls-4" points="656.87 185.39 652.07 185.39 652.07 202.19 656.87 185.39"/><rect class="cls-3" x="608.87" y="185.39" width="4.8" height="16.8"/><rect class="cls-5" x="618.47" y="192.59" width="14.4" height="2.4"/><rect class="cls-5" x="640.07" y="190.19" width="7.2" height="7.2" rx="2.4"/><rect class="cls-2" x="608.87" y="206.99" width="48" height="16.8"/><rect class="cls-3" x="652.07" y="206.99" width="4.8" height="16.8"/><polygon class="cls-4" points="656.87 206.99 652.07 206.99 652.07 223.79 656.87 206.99"/><rect class="cls-3" x="608.87" y="206.99" width="4.8" height="16.8"/><rect class="cls-5" x="618.47" y="214.19" width="14.4" height="2.4"/><rect class="cls-5" x="640.07" y="211.79" width="7.2" height="7.2" rx="2.4"/><text class="cls-6" transform="translate(599.84 250.64)">Coldline</text><text class="cls-7" transform="translate(583.77 273.8)">Our Coldline class<tspan x="0.46" y="14.4" xml:space="preserve"> of storage is fast, </tspan><tspan x="10.89" y="28.8">highly durable </tspan><tspan x="4.95" y="43.2">storage for data </tspan><tspan x="-2" y="57.6">accessed less than</tspan><tspan class="cls-8" x="100.04" y="57.6"> </tspan><tspan class="cls-8"><tspan x="6.23" y="72">once a quarter.</tspan></tspan></text><rect class="cls-2" x="816.22" y="185.73" width="48" height="16.8"/><rect class="cls-3" x="859.42" y="185.73" width="4.8" height="16.8"/><polygon class="cls-4" points="864.22 185.73 859.42 185.73 859.42 202.53 864.22 185.73"/><rect class="cls-3" x="816.22" y="185.73" width="4.8" height="16.8"/><rect class="cls-5" x="825.82" y="192.93" width="14.4" height="2.4"/><rect class="cls-5" x="847.42" y="190.53" width="7.2" height="7.2" rx="2.4"/><rect class="cls-2" x="816.22" y="207.33" width="48" height="16.8"/><rect class="cls-3" x="859.42" y="207.33" width="4.8" height="16.8"/><polygon class="cls-4" points="864.22 207.33 859.42 207.33 859.42 224.13 864.22 207.33"/><rect class="cls-3" x="816.22" y="207.33" width="4.8" height="16.8"/><rect class="cls-5" x="825.82" y="214.53" width="14.4" height="2.4"/><rect class="cls-5" x="847.42" y="212.13" width="7.2" height="7.2" rx="2.4"/><text class="cls-6" transform="translate(807.19 250.64)">Archive</text><text class="cls-7" transform="translate(785.92 273.8)">Our Archive class of <tspan x="1.63" y="14.4">storage is designed </tspan><tspan x="5.05" y="28.8">for cost-effective, </tspan><tspan x="-8.61" y="43.2">long-term preservation </tspan><tspan x="-3.57" y="57.6">of data accessed less </tspan><tspan x="7.11" y="72">than</tspan><tspan class="cls-8" x="31.37" y="72" xml:space="preserve"> once a year.</tspan></text><path class="cls-9" d="M122.61,103.57l-2-.06,0-1a9.59,9.59,0,0,1,.09-1.11l0-.12,0,0,.11-.43.07-.42h.05l0-.12a8.13,8.13,0,0,1,.38-1.08l.06-.14-.05,0,.23-.36.17-.39.06,0,.08-.13a6.77,6.77,0,0,1,.7-.92l.1-.12,0,0,.33-.27.28-.31,0,0,.12-.1a6.37,6.37,0,0,1,.95-.65l.12-.08,0,0,.39-.16.37-.21,0,0,.13,0a8,8,0,0,1,1.08-.35l.12,0v0l.43-.05.43-.11v.06l.13,0a10,10,0,0,1,1.11-.06h1l78,0,1,0,1-.08.95-.11.93-.16c.31-.06.62-.13.9-.21l.86-.28a6,6,0,0,0,.81-.35l.39-.2.33-.24a4.46,4.46,0,0,0,.61-.53l.26-.28.22-.35a4.5,4.5,0,0,0,.36-.73l.15-.38.1-.44a8.25,8.25,0,0,0,.16-.89l.09-.93c0-.31,0-.63,0-.95v-5h2v5c0,.36,0,.71,0,1v.07h0l-.1.93h0v.07a9.36,9.36,0,0,1-.19,1.08l0,.13.06,0-.17.42-.09.4h0l-.06.13a6,6,0,0,1-.52,1l-.1.16.06.06-.29.3-.2.33-.07,0-.13.14a6.62,6.62,0,0,1-.88.78l-.13.09,0,0-.35.19-.36.26,0-.06-.14.07a9.74,9.74,0,0,1-1,.45l-.08,0v0L213,96l0,0-.09,0c-.32.09-.67.17-1,.24h-.06v0l-.93.16v0h0l-1,.12h0v0l-1,.08v0h0l-1,0h0l-1,0v0h-78a6.4,6.4,0,0,0-.88,0l-.44,0-.42.1a5.62,5.62,0,0,0-.82.27l-.4.16-.37.21a4.24,4.24,0,0,0-.69.48l-.33.26-.28.31a5.39,5.39,0,0,0-.51.67l-.22.36-.17.38a5.57,5.57,0,0,0-.29.81l-.11.41-.07.44a8.44,8.44,0,0,0-.07.89Z"/><path class="cls-9" d="M316.36,103.81h-2l0-1.72-.06-.41a5.82,5.82,0,0,0-.18-.85l-.11-.42-.17-.39a6.58,6.58,0,0,0-.4-.74l-.22-.35-.29-.32a4.64,4.64,0,0,0-.6-.57l-.33-.27-.37-.21a5,5,0,0,0-.77-.37l-.39-.16-.43-.11a5.94,5.94,0,0,0-.86-.15l-.44,0-80.47,0-1,0h0v0l-1-.08v0h0l-1-.12h-.06v0l-.93-.16v0h0c-.37-.07-.71-.15-1-.24L223,96v0l-.87-.28v0l-.08,0a9.74,9.74,0,0,1-1-.45l-.13-.07,0,.06-.35-.26-.36-.19,0,0-.12-.09a6.72,6.72,0,0,1-.89-.78l-.13-.14-.07,0-.2-.33-.28-.3.06-.06-.11-.16a6.84,6.84,0,0,1-.52-1l-.05-.13h-.06l-.09-.4-.17-.42.06,0,0-.13c-.08-.35-.14-.71-.19-1.08v-.07h0l-.09-.93h0v-.07c0-.33,0-.68-.05-1v-5h2v5c0,.32,0,.64,0,.95l.09.93a8.25,8.25,0,0,0,.16.89l.1.44.15.38a5.5,5.5,0,0,0,.36.73l.22.35.27.28a3.94,3.94,0,0,0,.61.53l.32.24.39.2a6,6,0,0,0,.81.35l.86.28c.29.08.59.15.91.21l.93.16.95.11,1,.08,1,0,80.08,0v-.06l1,.12a10.13,10.13,0,0,1,1.1.2l.13,0,0-.05.41.16.41.1v.06l.12,0a7.66,7.66,0,0,1,1,.5l.13.07,0-.05.33.27.36.21,0,.06.12.09a7.88,7.88,0,0,1,.83.8l.11.12.06,0,.23.36.27.31-.05,0,.09.13a9.94,9.94,0,0,1,.54,1l.05.13.06,0,.12.41.17.4-.06,0,0,.14a7.65,7.65,0,0,1,.23,1.1l0,.11h0v.41l.07.48h0Zm-7.08-7.09h0Z"/><path class="cls-9" d="M339.24,102.84h-2v-1.36h-.06l.08-.88h0l0-.11a8.24,8.24,0,0,1,.22-1.1l0-.13-.05,0,.17-.41.1-.4h.06l.06-.12a7.64,7.64,0,0,1,.52-1l.09-.13-.06-.05.28-.32.22-.35.06,0,.1-.12a7.91,7.91,0,0,1,.83-.81l.12-.1,0-.06.36-.22.32-.26,0,0,.14-.08a8.22,8.22,0,0,1,1-.51l.12,0v-.06l.4-.1.41-.16,0,.05.13,0a8,8,0,0,1,1.11-.2l1-.12v.06l278.08,0,1,0,1-.07,1-.11.93-.15.9-.21.86-.28c.29-.11.56-.23.81-.35l.39-.2.32-.24a4.6,4.6,0,0,0,.61-.54l.27-.29.21-.34a6.36,6.36,0,0,0,.36-.74l.14-.37.1-.45a8.06,8.06,0,0,0,.16-.88l.09-.93c0-.32,0-.64,0-1v-5h2v5c0,.36,0,.7,0,1v.07h0l-.09.93h0v.06a9,9,0,0,1-.19,1.08l0,.14.06,0-.16.42-.09.4-.06,0,0,.13a6.14,6.14,0,0,1-.52,1.06l-.1.16.06.06-.27.29-.21.34-.07,0-.13.14a6,6,0,0,1-.88.79l-.12.09,0,0L631,94l-.36.26,0-.06-.13.07a7.44,7.44,0,0,1-1,.45l-.08,0v0l-.86.28,0,0-.08,0-1,.24h-.06v0l-.93.16v0h0c-.33,0-.68.09-1,.12h0v0l-1,.08v0h0l-1,0-1,0h0l-277.89,0a5.8,5.8,0,0,0-.85.15l-.43.11-.39.16a5.45,5.45,0,0,0-.77.37l-.35.21-.33.28a4.69,4.69,0,0,0-.6.58l-.27.31-.23.36a6,6,0,0,0-.38.76l-.17.38-.11.43a7.27,7.27,0,0,0-.17.86l-.06.39Z"/><path class="cls-9" d="M933,102.49l0-1a6.39,6.39,0,0,0-.09-.89l-.06-.42-.13-.43a7.64,7.64,0,0,0-.29-.8l-.18-.39-.23-.35a5.38,5.38,0,0,0-.52-.66l-.28-.31-.33-.25a4.76,4.76,0,0,0-.7-.47l-.37-.21-.4-.15a6,6,0,0,0-.83-.24l-.41-.1-.45,0c-.23,0-.47,0-.71,0l-283.22,0-1,0h0v0l-1-.08v0h0c-.36,0-.71-.07-1-.12h0v0l-.93-.16v0h-.06l-1-.24-.08,0,0,0-.86-.28v0l-.09,0a7.86,7.86,0,0,1-1-.45l-.13-.07,0,.06L636,94l-.36-.19,0,0-.12-.09a6.7,6.7,0,0,1-.89-.79l-.13-.14-.07,0-.2-.34-.27-.29,0-.06-.1-.16a6.92,6.92,0,0,1-.51-1.06l0-.13-.06,0-.09-.4L633,90l.06,0,0-.14c-.08-.34-.14-.71-.19-1.08v-.06h0l-.09-.93h0v-.07c0-.34,0-.68,0-1v-5h2v5c0,.32,0,.64,0,1l.09.93c0,.3.09.6.15.88l.11.45.14.37a5.08,5.08,0,0,0,.36.74l.21.34.27.29a5.22,5.22,0,0,0,.6.54l.33.24.39.2c.25.12.51.24.8.35l.87.28.9.21.93.15,1,.11,1,.07,1,0,283.16,0a8.77,8.77,0,0,1,.9,0H928l0,0,.44.1.42,0v0l.12,0a8,8,0,0,1,1.09.32l.14,0,0,0,.37.2.4.15,0,.06.13.07a7,7,0,0,1,1,.64l.13.1.05-.05.28.3.33.26,0,.06.11.12a7,7,0,0,1,.71.91l.08.13.06,0,.17.38.24.36-.06,0,.07.13a8.18,8.18,0,0,1,.39,1.08l0,.12h0l.07.44.12.41h-.05l0,.12c0,.36.09.73.11,1.11l0,1Z"/><path class="cls-9" d="M531.56,399.52h-2v-5c0-.33,0-.65,0-1l-.09-.93a8.25,8.25,0,0,0-.16-.89l-.1-.43L529,391a4.51,4.51,0,0,0-.36-.73l-.22-.36-.27-.28a3.94,3.94,0,0,0-.61-.53l-.34-.25-.37-.19a7.58,7.58,0,0,0-.81-.35l-.86-.28-.91-.21-.93-.15c-.3-.05-.62-.08-1-.12l-1-.08-1,0-388.07,0v.05l-1-.11a9.89,9.89,0,0,1-1.11-.2l-.13,0,0,.06-.41-.17-.41-.09v-.06l-.12-.05a7.6,7.6,0,0,1-1-.49l-.13-.08,0,.06-.34-.27-.35-.21,0,0-.12-.1a7,7,0,0,1-.84-.79l-.11-.12-.06,0-.22-.35-.29-.31,0,0-.08-.14a7.58,7.58,0,0,1-.55-1l-.06-.13-.06,0-.11-.41-.18-.39.06,0,0-.13a9.93,9.93,0,0,1-.24-1.11v-.1h0l0-.42-.07-.47h.06v-1.48l2,0v1.27l.08.89a5.82,5.82,0,0,0,.18.85l.12.41.17.39a5.86,5.86,0,0,0,.41.74l.23.36.28.31a4.73,4.73,0,0,0,.61.57l.32.26.38.21a6.08,6.08,0,0,0,.77.37l.39.15.43.11c.28.06.57.11.86.15l.42.05,388.5,0,1,.05h0v0l1,.08v0h0l1,.12h.06v0l.93.16v0h0c.37.07.71.15,1,.24l.09,0v0l.87.28v0l.08,0a9.74,9.74,0,0,1,1,.45l.13.07,0-.05.34.24.38.2,0,.05.12.09a7.42,7.42,0,0,1,.89.78l.13.14.06,0,.21.33.28.3-.06.06.1.16a6.17,6.17,0,0,1,.53,1.06l0,.13.06,0,.09.4.16.42-.06,0,0,.14c.08.34.14.7.19,1.08v.06h0l.09.93h0v.07c0,.34,0,.68,0,1Z"/><path class="cls-9" d="M532,399.52h-2v-5c0-.36,0-.7,0-1v-.07h0l.09-.93h0v-.07a10.93,10.93,0,0,1,.2-1.08l0-.14-.06,0,.16-.42.1-.4,0,0,0-.13a7,7,0,0,1,.53-1.06l.1-.16-.06-.06.28-.3.21-.33.06,0,.13-.14a7.42,7.42,0,0,1,.89-.78l.13-.09,0-.05.37-.2.34-.24,0,.05.14-.07a10.55,10.55,0,0,1,1-.45l.09,0v0l.86-.28,0,0,.08,0c.33-.09.68-.17,1-.24h.05v0l.93-.16v0h0l1-.12h0v0l1-.08v0h0l1-.05,1,0h0l385.91,0a4.93,4.93,0,0,0,.87-.13l.44-.09.39-.14a6.29,6.29,0,0,0,.79-.35l.37-.2.34-.26a5.39,5.39,0,0,0,.63-.55l.29-.31.24-.34a4.77,4.77,0,0,0,.42-.73l.18-.37.13-.42a7.35,7.35,0,0,0,.2-.84l.08-.44,0-.44c0-.15,0-.29,0-.44v-1l2,0v1c0,.19,0,.38,0,.57v.11h0l-.07.44,0,.43h0l0,.11A8.15,8.15,0,0,1,935,382l0,.13.06,0-.19.4-.13.39-.06,0-.06.13a7,7,0,0,1-.58,1l-.09.13,0,0-.29.3-.24.35,0,0-.11.12a7.89,7.89,0,0,1-.87.76l-.12.09,0,.06-.37.2-.34.25,0-.05-.13.07a8.36,8.36,0,0,1-1,.47l-.12,0v.05l-.4.09-.43.16,0-.06-.12,0c-.36.07-.74.13-1.12.17l-1,.09v-.05l-386,0-1,0-1,.08c-.33,0-.65.07-.95.12l-.93.15-.9.21-.86.28a6.8,6.8,0,0,0-.81.35l-.38.19-.34.25a4.46,4.46,0,0,0-.61.53l-.26.28-.22.36a3.82,3.82,0,0,0-.36.73l-.15.37-.1.44a8.25,8.25,0,0,0-.16.89l-.09.93c0,.31,0,.63,0,1Z"/><g class="cls-10"><rect class="cls-4" x="123.65" y="107.12" width="209.69" height="60.12"/></g><rect class="cls-1" x="125.16" y="115.03" width="186.63" height="251.38" rx="4"/><text class="cls-11" transform="translate(143.47 144.36)">H<tspan class="cls-12" x="10.07" y="0">i</tspan><tspan x="13.57" y="0">gh</tspan><tspan class="cls-13" x="30.34" y="0"> </tspan><tspan class="cls-14" x="33.33" y="0">f</tspan><tspan class="cls-15" x="38.91" y="0">r</tspan><tspan class="cls-16" x="44.14" y="0">e</tspan><tspan class="cls-17" x="52.28" y="0">q</tspan><tspan class="cls-12" x="60.87" y="0">u</tspan><tspan x="68.95" y="0">ency </tspan><tspan class="cls-18" x="103.96" y="0">acc</tspan><tspan class="cls-19" x="127.12" y="0">e</tspan><tspan x="135.25" y="0">ss</tspan></text><g class="cls-20"><rect class="cls-4" x="332.62" y="105.8" width="209.69" height="60.12"/></g><rect class="cls-1" x="332.48" y="115.03" width="186.63" height="251.38" rx="4"/><g class="cls-21"><rect class="cls-4" x="540.61" y="105.84" width="209.69" height="60.12"/></g><rect class="cls-1" x="540.18" y="115.03" width="186.63" height="251.38" rx="4"/><g class="cls-22"><rect class="cls-4" x="746.84" y="105.91" width="209.69" height="60.12"/></g><rect class="cls-1" x="747.35" y="115.03" width="186.63" height="251.38" rx="4"/><text class="cls-11" transform="translate(356.29 144.36)"><tspan class="cls-23">L</tspan><tspan class="cls-16" x="7.29" y="0">e</tspan><tspan x="15.43" y="0">ss</tspan><tspan class="cls-24" x="29.15" y="0"> </tspan><tspan class="cls-14" x="32.14" y="0">f</tspan><tspan class="cls-15" x="37.72" y="0">r</tspan><tspan class="cls-25" x="42.95" y="0">e</tspan><tspan x="51.08" y="0">q</tspan><tspan class="cls-12" x="59.68" y="0">u</tspan><tspan class="cls-17" x="67.76" y="0">e</tspan><tspan class="cls-26" x="75.82" y="0">n</tspan><tspan class="cls-14" x="83.62" y="0">t </tspan><tspan class="cls-18" x="92.38" y="0">acc</tspan><tspan class="cls-19" x="115.54" y="0">e</tspan><tspan x="123.67" y="0">ss</tspan></text><text class="cls-11" transform="translate(561.95 144.36)"><tspan class="cls-23">L</tspan><tspan class="cls-27" x="7.29" y="0">o</tspan><tspan class="cls-17" x="15.65" y="0">w</tspan><tspan class="cls-24" x="26.94" y="0"> </tspan><tspan x="29.93" y="0">f</tspan><tspan class="cls-28" x="35.5" y="0">r</tspan><tspan class="cls-25" x="40.74" y="0">e</tspan><tspan x="48.87" y="0">q</tspan><tspan class="cls-12" x="57.47" y="0">u</tspan><tspan class="cls-17" x="65.55" y="0">ency </tspan><tspan class="cls-29" x="100.56" y="0">acc</tspan><tspan class="cls-19" x="123.72" y="0">e</tspan><tspan class="cls-30" x="131.85" y="0">ss</tspan></text><text class="cls-11" transform="translate(756.45 144.36)"><tspan class="cls-23">L</tspan><tspan class="cls-27" x="7.29" y="0">ow</tspan><tspan class="cls-25" x="26.8" y="0">e</tspan><tspan class="cls-12" x="34.93" y="0">s</tspan><tspan class="cls-14" x="41.72" y="0">t</tspan><tspan class="cls-24" x="47.21" y="0"> </tspan><tspan x="50.2" y="0">f</tspan><tspan class="cls-15" x="55.78" y="0">r</tspan><tspan class="cls-16" x="61.01" y="0">e</tspan><tspan x="69.15" y="0">q</tspan><tspan class="cls-18" x="77.74" y="0">u</tspan><tspan x="85.82" y="0">ency </tspan><tspan class="cls-18" x="120.83" y="0">acc</tspan><tspan class="cls-25" x="143.99" y="0">e</tspan><tspan class="cls-30" x="152.12" y="0">ss</tspan></text></svg>